<svg xmlns="http://www.w3.org/2000/svg" viewBox="0 0 26.54 24"><defs><style>.cls-1{fill:gray;fill-rule:evenodd;}</style></defs><title>Asset 6</title><g id="Layer_2" data-name="Layer 2"><g id="枠"><path class="cls-1" d="M1.7,2.66H4.44V3A1.37,1.37,0,0,0,5.82,4.42H7.5A1.37,1.37,0,0,0,8.87,3V2.66h8.81V3A1.37,1.37,0,0,0,19,4.42h1.68A1.37,1.37,0,0,0,22.1,3V2.66h2.75a1.7,1.7,0,0,1,1.7,1.7V22.3a1.7,1.7,0,0,1-1.7,1.7H1.7A1.7,1.7,0,0,1,0,22.3V4.35a1.7,1.7,0,0,1,1.7-1.7Zm.79,3.26a.58.58,0,0,0-.58.58V21.73a.58.58,0,0,0,.58.58H24.05a.58.58,0,0,0,.58-.58V6.5a.58.58,0,0,0-.58-.58Zm17,11.68v1.76h1.76V17.6ZM19,8.87l1.36,7.85,1.36-7.85H19ZM5.82,0a.48.48,0,0,0-.47.47V3a.47.47,0,0,0,.47.47H7.5A.47.47,0,0,0,8,3V.47A.47.47,0,0,0,7.5,0ZM19,0a.47.47,0,0,0-.47.47V3a.47.47,0,0,0,.47.47h1.68A.48.48,0,0,0,21.2,3V.47A.48.48,0,0,0,20.73,0ZM16.79,10.62H5v1.33H16.79V10.62Zm0,5.66H5v1.33H16.79V16.28Zm0-2.83H5v1.33H16.79Z"/></g></g></svg>