<svg xmlns="http://www.w3.org/2000/svg" viewBox="0 0 34.69 25"><defs><style>.cls-1{fill:#fff;}.cls-2{fill:gray;}</style></defs><title>Asset 8</title><g id="Layer_2" data-name="Layer 2"><g id="枠"><path class="cls-1" d="M34.69,20.55,33.32,5.23a.42.42,0,0,0-.39-.38l-1-.05-.16-2.05a.41.41,0,0,0-.38-.38l-1.3-.07L29.94.48A.41.41,0,0,0,29.56.1C28.82,0,28.13,0,27.47,0A14.89,14.89,0,0,0,17.35,3.52,14.89,14.89,0,0,0,7.22,0c-.67,0-1.35,0-2.1.1a.41.41,0,0,0-.38.39l-.11,1.8-1.3.07A.41.41,0,0,0,3,2.74L2.8,4.8l-1,.05a.42.42,0,0,0-.39.38L0,20.55a.41.41,0,0,0,.11.32A.42.42,0,0,0,.43,21l.32,0c.54,0,1.09-.05,1.64-.05a27,27,0,0,1,14.73,4h0l0,0,0,0h.21l0,0,0,0h0a27,27,0,0,1,14.73-4c.55,0,1.1,0,1.64.05l.32,0a.42.42,0,0,0,.32-.13A.41.41,0,0,0,34.69,20.55Z"/><path class="cls-2" d="M34.69,20.55,33.32,5.23a.42.42,0,0,0-.39-.38l-1-.05-.16-2.05a.41.41,0,0,0-.38-.38l-1.3-.07L29.94.48A.41.41,0,0,0,29.56.1C28.82,0,28.13,0,27.47,0A14.89,14.89,0,0,0,17.35,3.52,14.89,14.89,0,0,0,7.22,0c-.67,0-1.35,0-2.1.1a.41.41,0,0,0-.38.39l-.11,1.8-1.3.07A.41.41,0,0,0,3,2.74L2.8,4.8l-1,.05a.42.42,0,0,0-.39.38L0,20.55a.41.41,0,0,0,.11.32A.42.42,0,0,0,.43,21l.32,0c.54,0,1.09-.05,1.64-.05a27,27,0,0,1,14.73,4h0l0,0,0,0h.21l0,0,0,0h0a27,27,0,0,1,14.73-4c.55,0,1.1,0,1.64.05l.32,0a.42.42,0,0,0,.32-.13A.41.41,0,0,0,34.69,20.55Zm-17.76,3.3A28.26,28.26,0,0,0,2.39,20.1c-.51,0-1,0-1.52,0L2.16,5.66l.57,0L1.73,19a.41.41,0,0,0,.44.45l.29,0c.48,0,1-.06,1.46-.06a21.44,21.44,0,0,1,13,4Zm0-1.53a22.5,22.5,0,0,0-13-3.78c-.45,0-.89,0-1.33,0l1-13,0-.42,0-.42.12-1.61.83,0-.1,1.64,0,.41,0,.41L3.68,17.38a.41.41,0,0,0,.44.44l.25,0c.41,0,.84-.06,1.27-.06a16.5,16.5,0,0,1,11.29,4Zm0-16.9V20.64A17.44,17.44,0,0,0,5.64,16.91c-.37,0-.74,0-1.1,0L5.26,5.6l0-.41,0-.41L5.42,3.1l0-.41,0-.42L5.56.9C6.14.85,6.69.83,7.22.83a14,14,0,0,1,9.71,3.42Zm.83,3.3V4.25A14,14,0,0,1,27.47.83c.53,0,1.08,0,1.67.07l.09,1.37,0,.42,0,.41.11,1.67,0,.41,0,.41L30.15,17c-.36,0-.73,0-1.1,0a17.44,17.44,0,0,0-11.29,3.73Zm0,13a16.5,16.5,0,0,1,11.29-4c.42,0,.85,0,1.27.06l.25,0a.41.41,0,0,0,.44-.44L30.27,5.59l0-.41,0-.41-.1-1.64.83,0,.12,1.61,0,.42,0,.42,1,13c-.43,0-.88,0-1.33,0a22.5,22.5,0,0,0-13,3.78ZM32.3,20.1a28.26,28.26,0,0,0-14.54,3.74v-.51a21.44,21.44,0,0,1,13-4c.49,0,1,0,1.46.06l.29,0A.41.41,0,0,0,33,19L32,5.63l.57,0,1.29,14.49C33.33,20.12,32.82,20.1,32.3,20.1Z"/></g></g></svg>