<svg xmlns="http://www.w3.org/2000/svg" viewBox="0 0 28.39 23"><defs><style>.cls-1{fill:gray;}</style></defs><title>Asset 7</title><g id="Layer_2" data-name="Layer 2"><g id="枠"><path class="cls-1" d="M25,15,28.31,5a1,1,0,0,0-.1-1,1.51,1.51,0,0,0-1.2-.5H8l-.51-2.4A1.33,1.33,0,0,0,6.18,0H.85C.3,0,0,.26,0,.78V2.16c0,.5.3.63.87.63h4.5L8.82,17.42A3.33,3.33,0,0,0,11.12,23a3.51,3.51,0,0,0,3.12-2.49h6.71A3.28,3.28,0,0,0,24.06,23a3.23,3.23,0,0,0,3.14-3.23,3,3,0,0,0-3.13-3.25,3.06,3.06,0,0,0-2.37,1.16H13.47a2.6,2.6,0,0,0-2.24-1.25l-.11-.61H23.65c.95,0,1.13-.35,1.3-.8Zm-.87,3.53a1.18,1.18,0,1,1-1.18,1.18,1.18,1.18,0,0,1,1.18-1.18Zm-11.8,1.18a1.19,1.19,0,1,1-1.19-1.19,1.19,1.19,0,0,1,1.19,1.19Zm0,0"/></g></g></svg>