<svg xmlns="http://www.w3.org/2000/svg" viewBox="0 0 28.16 27"><defs><style>.cls-1{fill:gray;}</style></defs><title>Asset 10</title><g id="Layer_2" data-name="Layer 2"><g id="レイヤー1"><path class="cls-1" d="M28.16,8.31A3.11,3.11,0,0,0,26.46,6L15.78.37a4.13,4.13,0,0,0-3.4,0L1.71,5.85A3.12,3.12,0,0,0,0,8.23c0,.82.48,1.49,1.07,1.49s1.07.86,1.07,1.92v9.81c0,1.06-.48,1.92-1.07,1.92S0,24.19,0,25.19A1.87,1.87,0,0,0,1.92,27H26.24a1.87,1.87,0,0,0,1.92-1.81c0-1-.48-1.81-1.07-1.81S26,22.51,26,21.45V11.64c0-1.06.48-1.92,1.07-1.92a1.28,1.28,0,0,0,1.07-1.41ZM7.47,21.45V11.64A1.92,1.92,0,0,1,9.39,9.72h.1a1.92,1.92,0,0,1,1.92,1.92v9.81a1.92,1.92,0,0,1-1.92,1.92h-.1a1.92,1.92,0,0,1-1.92-1.92Zm11.31,1.92h-.1a1.92,1.92,0,0,1-1.92-1.92V11.64a1.92,1.92,0,0,1,1.92-1.92h.1a1.92,1.92,0,0,1,1.92,1.92v9.81a1.92,1.92,0,0,1-1.92,1.92Zm0,0"/></g></g></svg>