<svg xmlns="http://www.w3.org/2000/svg" viewBox="0 0 25.73 34.34"><defs><style>.cls-1,.cls-3{fill:#fff;}.cls-1,.cls-2,.cls-3{stroke:gray;stroke-linejoin:round;}.cls-1,.cls-2{stroke-width:1.34px;}.cls-2{fill:none;}.cls-3{stroke-linecap:round;stroke-width:0.66px;}</style></defs><title>Asset 5</title><g id="Layer_2" data-name="Layer 2"><g id="枠"><path class="cls-1" d="M20.24,17.44a47.69,47.69,0,0,1,1-6.61C22,8,24.27,3.36,21,1.21c-2.37-1.54-5,.43-6,3.59-.71,2.23-.86,11.64-.86,11.64s-1-2.59-3.16-2.16a3.27,3.27,0,0,0-2.59,2.3s-1.81-.7-2.87.14a4.52,4.52,0,0,0-1.29,3.45s-2.15-.43-3,1.29-.43,3.59.43,5.32a5.83,5.83,0,0,0,2.87,3,2.24,2.24,0,0,0,1.29.14s1.72,3.73,4.6,3.73,3.59-.72,3.59-.72,3.58.84,5.46,0a8.85,8.85,0,0,0,5-5.31c1.15-2.73.72-6.18-.86-7.76A14.28,14.28,0,0,0,20.24,17.44Z"/><path class="cls-2" d="M14.07,16.43s2.1,6.27.43,8.19a3.22,3.22,0,0,1-2.87.72s-.29,2-1.58,2.3a4.38,4.38,0,0,1-2.15,0s-.72,1.72-1.44,2a9,9,0,0,1-1.58.43"/><path class="cls-2" d="M8.32,16.58a15.69,15.69,0,0,0,1.15,4.74,29,29,0,0,0,2.15,4"/><path class="cls-2" d="M4.16,20.17a11.36,11.36,0,0,0,1.29,4c1,1.58,2.44,3.45,2.44,3.45"/><path class="cls-1" d="M23.48,20.35c-.87-.95-2.19-2.14-3.24-2.05-1.72.14-8.28,3.14-8.62,5.17-.29,1.72.57,3.89,2.44,4a4.5,4.5,0,0,0,3.74-1.15c1.26-1,1.72-.86,1.72-.86l1,.72"/><path class="cls-1" d="M24.54,21.46c.13,0-.51-.5-1.06-1.11"/><path class="cls-3" d="M15.07,7.67a7.72,7.72,0,0,1,2.87-.14,7.91,7.91,0,0,1,1.72.72"/><path class="cls-3" d="M14.5,13a5.53,5.53,0,0,1,2.3,0,10,10,0,0,1,1.58.57"/><path class="cls-3" d="M19.24,25.34a2.74,2.74,0,0,0,.58-.86A11.76,11.76,0,0,0,20.1,23"/></g></g></svg>