<svg xmlns="http://www.w3.org/2000/svg" viewBox="0 0 15 12.35"><defs><style>.cls-1{fill:#555;}</style></defs><title>Asset 1</title><g id="Layer_2" data-name="Layer 2"><g id="レイヤー1"><path class="cls-1" d="M7.58,2.26c2.53,0,4.11-.13,4.32,2.67H15C15,.59,11.2,0,7.5,0S0,.59,0,4.93H3.07c.24-2.86,2-2.69,4.51-2.67Zm0,0"/><path class="cls-1" d="M1.54,6.32c.75,0,1.37,0,1.51-.69a1.88,1.88,0,0,0,0-.34H0c0,1.1.69,1,1.54,1Zm0,0"/><path class="cls-1" d="M11.93,5.28h0a1.62,1.62,0,0,0,0,.34c.15.68.77.64,1.52.64s1.55.06,1.55-1Zm0,0"/><path class="cls-1" d="M10.42,4.53V4.1c0-.2-.23-.21-.5-.21H9.47c-.28,0-.5,0-.5.21v.67H5.75V4.1c0-.2-.22-.21-.5-.21H4.8c-.28,0-.5,0-.5.21v.82A32.31,32.31,0,0,0,1.08,9.3v2.61a.44.44,0,0,0,.44.44H13.19a.44.44,0,0,0,.44-.44V9.29a32.81,32.81,0,0,0-3.21-4.37ZM5.59,9.65A.43.43,0,1,1,6,9.23a.42.42,0,0,1-.43.42Zm0-1.46A.43.43,0,1,1,6,7.77a.42.42,0,0,1-.43.42Zm0-1.46A.43.43,0,1,1,6,6.31a.42.42,0,0,1-.43.42ZM7.35,9.65a.43.43,0,1,1,.43-.42.42.42,0,0,1-.43.42Zm0-1.46a.43.43,0,1,1,.43-.42.42.42,0,0,1-.43.42Zm0-1.46a.43.43,0,1,1,.43-.42.42.42,0,0,1-.43.42ZM9.1,9.65a.43.43,0,1,1,.43-.42.43.43,0,0,1-.43.42Zm0-1.46a.43.43,0,1,1,.43-.42.43.43,0,0,1-.43.42Zm0-1.46a.43.43,0,1,1,.43-.42.43.43,0,0,1-.43.42Zm0,0"/></g></g></svg>